<svg width="25" height="22" viewBox="0 0 25 22" fill="none" xmlns="http://www.w3.org/2000/svg">
<path d="M19.8529 8.29435H22.7941C23.2001 8.29435 23.5294 8.62355 23.5294 9.02964V17.7401C23.5294 18.1461 23.2001 18.4754 22.7941 18.4754H21.2948C21.025 18.4754 20.7768 18.6232 20.6484 18.8604L19.849 20.336C19.5709 20.8495 18.8341 20.8495 18.5559 20.336L17.7566 18.8604C17.6281 18.6232 17.38 18.4754 17.1101 18.4754H11.0294C10.6233 18.4754 10.2941 18.1461 10.2941 17.7401V15.6473M8.57251 13.7699L7.40558 15.9242C7.12746 16.4377 6.39062 16.4377 6.11251 15.9242L4.94557 13.7699C4.81705 13.5327 4.56888 13.3848 4.29904 13.3848H2.20588C1.79979 13.3848 1.47058 13.0557 1.47058 12.6496V1.6767C1.47058 1.27061 1.79979 0.941406 2.20588 0.941406H16.9118C17.3178 0.941406 17.6471 1.27061 17.6471 1.6767V12.6496C17.6471 13.0557 17.3178 13.3848 16.9118 13.3848H9.21905C8.9492 13.3848 8.70104 13.5326 8.57251 13.7699Z" stroke="black" stroke-linecap="round" stroke-linejoin="round"/>
</svg>
